<?xml version="1.0" encoding="UTF-8"?>
<!DOCTYPE svg PUBLIC "-//W3C//DTD SVG 1.1//EN" "http://www.w3.org/Graphics/SVG/1.1/DTD/svg11.dtd">
<!-- Creator: CorelDRAW -->
<svg xmlns="http://www.w3.org/2000/svg" xml:space="preserve" width="2048px" height="2048px" style="shape-rendering:geometricPrecision; text-rendering:geometricPrecision; image-rendering:optimizeQuality; fill-rule:evenodd; clip-rule:evenodd"
viewBox="0 0 2048 2048"
 xmlns:xlink="http://www.w3.org/1999/xlink">
 <defs>
  <style type="text/css">
   <![CDATA[
    .str0 {stroke:#C99154;stroke-width:18.5469;stroke-linecap:round;stroke-linejoin:round}
    .fil0 {fill:none}
    .fil3 {fill:#414242}
    .fil6 {fill:#ECEDEE}
    .fil4 {fill:#F4DCBB}
    .fil14 {fill:#333333}
    .fil1 {fill:#424242}
    .fil12 {fill:#471E00}
    .fil17 {fill:#558B2F}
    .fil2 {fill:#7986CB}
    .fil7 {fill:#7CB342}
    .fil16 {fill:#BDBDBD}
    .fil15 {fill:#CCCCCC}
    .fil10 {fill:#E28D66}
    .fil8 {fill:#E6B683}
    .fil11 {fill:#EDA17D}
    .fil9 {fill:#FAD3A8}
    .fil13 {fill:white}
    .fil5 {fill:#C6B297;fill-rule:nonzero}
   ]]>
  </style>
 </defs>
 <g id="Layer_x0020_1">
  <metadata id="CorelCorpID_0Corel-Layer"/>
  <rect class="fil0" x="256" y="256" width="1536" height="1536"/>
  <rect class="fil0" width="2048" height="2048"/>
  <path class="fil1" d="M517.086 627.76c10.7847,-36.1252 96.7442,-67.9843 131.81,60.456 35.0799,128.433 17.413,173.43 36.7512,218.758 19.363,45.339 -26.2807,396.271 -134.321,395.132 -115.491,-1.22244 -140.681,-336.864 -117.703,-404.873 22.9878,-67.9784 2.90315,-269.568 83.4627,-269.473z"/>
  <path class="fil1" d="M897.175 627.76c-10.7847,-36.1252 -96.7442,-67.9843 -131.815,60.456 -35.0752,128.433 -17.4142,173.43 -36.7477,218.758 -19.3618,45.339 26.2807,396.271 134.317,395.132 115.495,-1.22244 140.68,-336.864 117.704,-404.873 -22.9843,-67.9784 -2.90551,-269.568 -83.4591,-269.473z"/>
  <path class="fil2" d="M800.626 1154.65c-1.77992,2.78858 -176.792,5.5878 -178.732,8.34804 -54.9556,78.4005 -173.713,92.8607 -268.145,113.978 -93.9698,21.0095 -97.5957,140.384 -97.7493,219.884l916.109 0c-0.140551,-79.5001 -1.89449,-198.436 -97.7694,-219.884 -95.8642,-21.4299 -221.579,-40.3559 -273.714,-122.326z"/>
  <path class="fil3" d="M805.946 1162.43l0 43.1611 -44.6977 291.286 -95.2725 0 -44.3055 -288.149 0 -45.3532 0.250394 -0.348425c1.93347,-2.78032 176.92,-5.5689 178.709,-8.35394 1.69134,2.63504 3.43111,5.22048 5.31615,7.75749z"/>
  <path class="fil4" d="M622.273 967.306l0 224.864c45.9851,94.0843 128.544,96.5257 183.565,0l0 -224.864c0,-121.414 -183.565,-121.414 -183.565,0z"/>
  <path class="fil4" d="M956.169 862.307c-18.3378,-8.25473 -44.2347,12.013 -57.8457,45.2339 -13.6288,33.2563 -9.81024,66.8941 8.52757,75.1442 18.3437,8.25946 44.2559,-11.9894 57.8658,-45.2339 13.6099,-33.241 9.79017,-66.8752 -8.54764,-75.1442z"/>
  <path class="fil4" d="M472.109 862.307c18.3343,-8.25473 44.2288,11.9929 57.8599,45.2339 13.6099,33.2563 9.79017,66.8941 -8.54764,75.1442 -18.339,8.25946 -44.2347,-11.9894 -57.8599,-45.2339 -13.6099,-33.241 -9.77599,-66.8752 8.54764,-75.1442z"/>
  <path class="fil5" d="M713.199 1142.93c-33.3343,0 -90.9261,-57.5115 -90.9261,-57.5115l0 -6.26103 183.565 0 0 5.61969c0,0 -59.3126,58.1528 -92.6387,58.1528z"/>
  <path class="fil4" d="M714.238 1122.85c-56.9977,0 -177.417,-93.9544 -214.631,-228.5 -37.5922,-135.878 33.1961,-330.763 214.631,-330.763 181.421,0 252.223,194.886 214.617,330.763 -37.2331,134.545 -157.631,228.5 -214.617,228.5z"/>
  <path class="fil1" d="M940.042 728.03c-17.8701,-70.415 -107.986,-177.536 -192.519,-175.567 -12.1725,-1.27913 -26.041,-1.77047 -41.1662,-0.885827 -15.1311,-0.884646 -28.9996,-0.393307 -41.1721,0.885827 -84.5316,-1.9689 -174.649,105.152 -192.52,175.567 -14.3599,56.6067 -20.8193,112.402 13.6902,170.392 6.21024,17.4969 13.539,30.0532 20.55,35.0256 -7.75158,-44.537 -9.3378,-76.7292 -6.52323,-101.159 2.57244,-3.83977 23.6327,34.8095 28.1551,17.9504 34.1646,-127.332 166.172,-180.561 177.82,-180.561 53.7815,0.0141732 118.66,-5.82166 166.537,158.653 20.8795,-8.68701 32.9634,-5.68937 39.4335,3.95788 2.81339,24.4299 1.22717,56.6221 -6.5256,101.159 7.01693,-4.97244 14.341,-17.5288 20.5512,-35.0256 34.5154,-57.9898 28.0512,-113.785 13.689,-170.392z"/>
  <polygon class="fil6" points="666.716,1496.77 589.301,1496.77 583.98,1496.87 504.117,1424.03 585.422,1369.83 486.072,1323.33 551.858,1221.2 577.417,1181.57 621.67,1161.73 621.67,1208.72 665.976,1496.87 "/>
  <polygon class="fil6" points="841.798,1366.69 923.046,1420.89 843.04,1496.87 837.923,1496.77 760.503,1496.77 761.248,1496.87 805.946,1205.59 805.946,1158.89 859.951,1182.86 883.771,1223.24 941.103,1320.25 "/>
  <g id="_527580520">
   <path id="_527576224" class="fil7" d="M1480.76 1270.72c-11.1579,42.1784 -65.7579,81.3851 -124.837,81.3851 -59.0658,0 -108.319,-31.7847 -119.483,-73.963 -33.6685,12.6709 -414.28,214.286 -348.701,215.341l468.183 7.53308 426.734 2.98347c71.0764,0.494882 -286.362,-227.433 -301.897,-233.28z"/>
   <g>
    <polygon id="_527578168" class="fil8" points="1236.52,1354.54 1473.82,1354.54 1473.82,1029.96 1236.52,1029.96 "/>
    <path id="_527604736" class="fil9" d="M1363.3 691.725c121.656,0 217.212,65.9693 201.97,224.069 -4.33701,45.013 39.43,21.2421 39.43,37.5036 0,134.265 -112.214,243.108 -250.634,243.108 -138.416,0 -250.632,-108.842 -250.632,-243.108 29.5524,42.9839 34.0677,-11.5382 32.7355,-36.6827 -10.9252,-205.827 99.6178,-224.89 227.131,-224.89z"/>
    <path id="_527578864" class="fil0 str0" d="M1395.16 982.192c-22.6276,22.3146 -59.5607,22.3146 -82.193,0"/>
    <path id="_527587096" class="fil10" d="M1487.14 1033.45c-71.8312,109.339 -194.323,109.339 -266.155,0l266.155 0z"/>
    <path id="_527597176" class="fil11" d="M1433.75 1089.54c-50.1225,34.5555 -109.244,34.5555 -159.366,0 47.8288,-59.739 111.533,-59.7449 159.366,0z"/>
    <path id="_527587480" class="fil9" d="M1070.78 870.564c13.8567,-5.93977 35.7638,17.5228 48.9343,52.402 13.1705,34.8851 12.6154,67.9796 -1.24016,73.9146 -13.8579,5.93977 -35.7697,-17.5217 -48.9355,-52.4079 -13.1764,-34.8851 -12.6106,-67.9737 1.24134,-73.9087z"/>
    <path id="_527586088" class="fil9" d="M1634.02 870.564c-17.9858,-5.93977 -41.9067,17.5228 -53.4166,52.402 -11.5193,34.8851 -6.27402,67.9796 11.7071,73.9146 17.9953,5.93977 41.9079,-17.5217 53.4272,-52.4079 11.5181,-34.8851 6.26339,-67.9737 -11.7177,-73.9087z"/>
    <path id="_527577976" class="fil12" d="M1181.46 676.801c-53.987,34.161 -56.7059,92.9635 -56.7059,109.949 0,16.9902 43.7611,3.07677 97.7434,-31.0843 53.987,-34.161 97.7434,-75.6237 97.7434,-92.615 0,-16.9902 -84.8044,-20.4095 -138.781,13.7504z"/>
    <path id="_527607112" class="fil13" d="M1412.57 1033.45c-3.26575,29.4083 -115.956,26.4189 -116.995,0l116.995 0z"/>
    <path id="_527607256" class="fil14" d="M1610.12 844.794c0,145.311 -114.638,263.103 -256.057,263.103 -141.41,0 -256.053,-117.791 -256.053,-263.103 -64.8095,-377.577 566.871,-365.212 512.11,0z"/>
    <path id="_527584816" class="fil9" d="M1363.62 691.725c35.1851,0 74.0398,-10.2484 103.096,0.636615 74.8205,28.0524 94.6477,134.552 83.2926,248.437 -2.55945,25.6217 16.6193,30.45 27.0071,5.48622 5.70473,-13.702 36.2764,0.00944883 36.2764,7.01339 0,134.26 -116.054,243.108 -259.225,243.108 -143.167,0 -259.22,-108.848 -259.22,-243.108 5.1626,7.2626 30.117,-0.980316 32.1083,4.03111 14.889,37.6382 26.6398,11.4284 25.4953,-9.46064 -7.72205,-140.801 23.4343,-238.945 98.68,-258.631 34.7611,-9.08977 70.8237,2.4874 112.489,2.4874z"/>
    <path id="_527601832" class="fil9" d="M1070.78 870.564c13.8567,-5.93977 35.7638,17.5228 48.9343,52.402 13.1705,34.8851 12.6154,67.9796 -1.24016,73.9146 -13.8579,5.93977 -35.7697,-17.5217 -48.9355,-52.4079 -13.1764,-34.8851 -12.6106,-67.9737 1.24134,-73.9087z"/>
    <path id="_527589232" class="fil9" d="M1634.02 870.564c-17.9858,-5.93977 -41.9067,17.5228 -53.4166,52.402 -11.5193,34.8851 -6.27402,67.9796 11.7071,73.9146 17.9953,5.93977 41.9079,-17.5217 53.4272,-52.4079 11.5181,-34.8851 6.26339,-67.9737 -11.7177,-73.9087z"/>
    <path id="_527605024" class="fil15" d="M1323.77 1446.17c20.374,-3.36378 41.8288,-2.77677 63.9579,0.291733 1.39725,-10.2732 7.93465,-20.6799 22.6701,-34.9618 44.6528,-43.2674 -1.7126,-100.844 -54.717,-100.844 -53.0103,0 -98.7662,59.1863 -54.1122,102.461 13.9807,13.5496 20.4862,23.4543 22.1917,33.0036l0.00944883 0.0496063z"/>
    <path id="_527586712" class="fil16" d="M1307.43 1499.08c10.3217,-25.7091 18.9177,-40.0583 16.3417,-55.252 20.374,-3.50788 41.8288,-2.89488 63.9579,0.304725l-0.0767717 0.605906c-1.66654,14.8146 6.39804,29.5028 16.1291,54.3945 -15.7925,1.24725 -31.7516,1.88622 -47.8571,1.88622 -16.3228,0 -32.4922,-0.651969 -48.4949,-1.93937z"/>
    <path id="_527582176" class="fil17" d="M1356.13 1312.79l-115.28 125.373c-35.6303,-42.1063 -49.9536,-86.7166 -62.804,-135.817 35.8548,-20.5429 51.0863,-42.4264 59.6327,-80.6599 -4.50237,103.789 247.366,117.928 236.145,-0.433465 8.06103,39.8528 19.6512,68.2666 60.2882,80.6918 -12.7488,48.2351 -27.7028,94.8509 -62.7024,136.219l-115.279 -125.373z"/>
    <path id="_527608480" class="fil17" d="M1360.05 1304.02l-119.203 110.571c-35.6303,-33.3638 -46.7115,-75.2906 -59.5619,-114.197 30.6697,-19.3524 47.8441,-48.4996 56.3906,-78.7949 -4.52835,104.95 247.353,115.547 236.145,-0.34252 8.06103,31.5733 26.778,59.8418 58.3453,79.4445 -12.7606,38.2087 -25.7599,81.1134 -60.7595,113.89l-111.357 -110.571z"/>
   </g>
  </g>
 </g>
</svg>
