<svg xmlns="http://www.w3.org/2000/svg" width="128" height="128" viewBox="0 0 128 128">
  <title>PERFUME</title>
  <g>
    <rect x="50.134" y="6.306" width="27.731" height="24.055" fill="#38d0e5"/>
    <rect x="55.222" y="30.362" width="17.556" height="12.665" fill="#f4d32c"/>
    <path d="M55.222,43.027a45.011,45.011,0,0,0-20.1,78.667H92.882a45.011,45.011,0,0,0-20.1-78.667Z" fill="#38d0e5"/>
    <circle cx="64" cy="87.179" r="23.372" fill="#f4d32c"/>
    <path d="M41.862,60.138A1.75,1.75,0,0,1,40.792,57a38.575,38.575,0,0,1,3.7-2.517,1.75,1.75,0,1,1,1.8,3,35.025,35.025,0,0,0-3.359,2.286A1.743,1.743,0,0,1,41.862,60.138Z" fill="#ffeea4"/>
    <path d="M28.914,79.522a1.782,1.782,0,0,1-.454-.06,1.75,1.75,0,0,1-1.238-2.143,38.224,38.224,0,0,1,7.816-14.846A1.75,1.75,0,1,1,37.7,64.745a34.7,34.7,0,0,0-7.1,13.479A1.75,1.75,0,0,1,28.914,79.522Z" fill="#ffeea4"/>
  </g>
</svg>
